<?xml version="1.0" encoding="UTF-8" standalone="no"?>
<!DOCTYPE svg PUBLIC "-//W3C//DTD SVG 1.1//EN" "http://www.w3.org/Graphics/SVG/1.1/DTD/svg11.dtd">
<svg version="1.1" xmlns="http://www.w3.org/2000/svg" xmlns:xlink="http://www.w3.org/1999/xlink" preserveAspectRatio="xMidYMid meet" viewBox="342.33716515077924 77.19017648421341 262.2418385691865 215.11464864354593" width="262.24" height="215.11"><defs><path d="M345.13 78.47C348.59 76.36 353.11 77.45 355.23 80.91C380.53 122.29 452.31 239.65 477.53 280.9C479.87 284.72 478.67 289.71 474.85 292.05C473.85 292.66 477.32 290.53 476.21 291.21C472.71 293.35 468.14 292.25 466 288.75C440.7 247.38 368.73 129.71 343.45 88.36C341.27 84.8 342.39 80.15 345.95 77.97C347.04 77.31 344.01 79.16 345.13 78.47Z" id="abfFz6U6I"></path><path d="M472.9 139.37L473.06 139.38L473.21 139.4L473.37 139.43L473.52 139.46L473.67 139.5L473.82 139.55L473.97 139.6L474.12 139.65L474.27 139.72L474.41 139.78L474.55 139.86L474.69 139.94L474.83 140.03L474.96 140.12L475.09 140.22L475.22 140.32L475.34 140.43L475.47 140.55L506.49 171.57L506.6 171.69L506.71 171.81L506.82 171.94L506.91 172.07L507.01 172.21L507.09 172.34L507.17 172.48L507.25 172.62L507.32 172.77L507.38 172.91L507.44 173.06L507.49 173.21L507.53 173.36L507.57 173.51L507.6 173.67L507.63 173.82L507.65 173.97L507.66 174.13L507.67 174.29L507.68 174.44L507.67 174.6L507.66 174.75L507.65 174.91L507.63 175.06L507.6 175.22L507.57 175.37L507.53 175.52L507.49 175.67L507.44 175.82L507.38 175.97L507.32 176.12L507.25 176.26L507.17 176.4L507.09 176.54L507.01 176.68L506.91 176.81L506.82 176.94L506.71 177.07L506.6 177.2L506.49 177.32L475.47 208.34L475.34 208.45L475.22 208.56L475.09 208.67L474.96 208.77L474.83 208.86L474.69 208.94L474.55 209.03L474.41 209.1L474.27 209.17L474.12 209.23L473.97 209.29L473.82 209.34L473.67 209.38L473.52 209.42L473.37 209.45L473.21 209.48L473.06 209.5L472.9 209.52L472.75 209.53L472.59 209.53L472.43 209.53L472.28 209.52L472.12 209.5L471.97 209.48L471.81 209.45L471.66 209.42L471.51 209.38L471.36 209.34L471.21 209.29L471.06 209.23L470.91 209.17L470.77 209.1L470.63 209.03L470.49 208.94L470.35 208.86L470.22 208.77L470.09 208.67L469.96 208.56L469.84 208.45L469.72 208.34L438.69 177.32L438.58 177.2L438.47 177.07L438.36 176.94L438.27 176.81L438.17 176.68L438.09 176.54L438.01 176.4L437.93 176.26L437.86 176.12L437.8 175.97L437.75 175.82L437.69 175.67L437.65 175.52L437.61 175.37L437.58 175.22L437.55 175.06L437.53 174.91L437.52 174.75L437.51 174.6L437.5 174.44L437.51 174.29L437.52 174.13L437.53 173.97L437.55 173.82L437.58 173.67L437.61 173.51L437.65 173.36L437.69 173.21L437.75 173.06L437.8 172.91L437.86 172.77L437.93 172.62L438.01 172.48L438.09 172.34L438.17 172.21L438.27 172.07L438.36 171.94L438.47 171.81L438.58 171.69L438.69 171.57L469.72 140.55L469.84 140.43L469.96 140.32L470.09 140.22L470.22 140.12L470.35 140.03L470.49 139.94L470.63 139.86L470.77 139.78L470.91 139.72L471.06 139.65L471.21 139.6L471.36 139.55L471.51 139.5L471.66 139.46L471.81 139.43L471.97 139.4L472.12 139.38L472.28 139.37L472.43 139.36L472.59 139.36L472.75 139.36L472.9 139.37ZM472.35 153.71L472.19 153.73L472.03 153.77L471.88 153.81L471.72 153.86L471.57 153.93L471.43 154L471.29 154.08L471.15 154.18L471.02 154.29L470.89 154.4L452.55 172.74L452.44 172.87L452.33 173L452.23 173.14L452.15 173.28L452.07 173.43L452.01 173.58L451.96 173.73L451.91 173.88L451.88 174.04L451.86 174.2L451.85 174.36L451.85 174.52L451.86 174.68L451.88 174.84L451.91 175L451.96 175.16L452.01 175.31L452.07 175.46L452.15 175.61L452.23 175.75L452.33 175.88L452.44 176.02L452.55 176.14L470.89 194.48L471.02 194.6L471.15 194.7L471.29 194.8L471.43 194.88L471.57 194.96L471.72 195.02L471.88 195.08L472.03 195.12L472.19 195.15L472.35 195.17L472.51 195.18L472.67 195.18L472.83 195.17L472.99 195.15L473.15 195.12L473.3 195.08L473.46 195.02L473.61 194.96L473.75 194.88L473.9 194.8L474.03 194.7L474.16 194.6L474.29 194.48L492.63 176.14L492.75 176.02L492.85 175.88L492.95 175.75L493.03 175.61L493.11 175.46L493.17 175.31L493.22 175.16L493.27 175L493.3 174.84L493.32 174.68L493.33 174.52L493.33 174.36L493.32 174.2L493.3 174.04L493.27 173.88L493.22 173.73L493.17 173.58L493.11 173.43L493.03 173.28L492.95 173.14L492.85 173L492.75 172.87L492.63 172.74L474.29 154.4L474.16 154.29L474.03 154.18L473.9 154.08L473.75 154L473.61 153.93L473.46 153.86L473.3 153.81L473.15 153.77L472.99 153.73L472.83 153.71L472.67 153.7L472.51 153.7L472.35 153.71Z" id="d70yEL50W1"></path><path d="M600.05 78.27C596.59 76.15 592.07 77.24 589.95 80.7C564.65 122.08 492.87 239.44 467.65 280.69C465.31 284.51 466.51 289.51 470.33 291.84C471.33 292.45 467.86 290.33 468.97 291.01C472.47 293.15 477.04 292.05 479.18 288.54C504.48 247.18 576.45 129.5 601.73 88.16C603.91 84.6 602.79 79.95 599.23 77.77C598.14 77.1 601.17 78.96 600.05 78.27Z" id="d5eH0vPalk"></path><path d="M472.96 77.4C468.91 77.4 465.62 80.68 465.62 84.74C465.62 124.21 465.62 234.67 465.62 273.99C465.62 278.47 469.25 282.1 473.73 282.1C474.9 282.1 470.83 282.1 472.13 282.1C476.23 282.1 479.56 278.78 479.56 274.67C479.56 235.22 479.56 124.38 479.56 84.95C479.56 80.78 476.18 77.4 472 77.4C470.73 77.4 474.28 77.4 472.96 77.4Z" id="bwr7AbWda"></path><path d="M604.58 228.29C604.58 224.23 601.29 220.95 597.24 220.95C546.42 220.95 401.94 220.95 351.28 220.95C346.8 220.95 343.17 224.58 343.17 229.05C343.17 230.22 343.17 226.15 343.17 227.45C343.17 231.56 346.5 234.88 350.6 234.88C401.4 234.88 546.25 234.88 597.02 234.88C601.2 234.88 604.58 231.5 604.58 227.33C604.58 226.05 604.58 229.61 604.58 228.29Z" id="asgyMg5O4"></path></defs><g><g><g><use xlink:href="#abfFz6U6I" opacity="1" fill="#05bf85" fill-opacity="1"></use></g><g><use xlink:href="#d70yEL50W1" opacity="1" fill="#05bf85" fill-opacity="1"></use></g><g><use xlink:href="#d5eH0vPalk" opacity="1" fill="#05bf85" fill-opacity="1"></use></g><g><use xlink:href="#bwr7AbWda" opacity="1" fill="#05bf85" fill-opacity="1"></use></g><g><use xlink:href="#asgyMg5O4" opacity="1" fill="#05bf85" fill-opacity="1"></use></g></g></g></svg>